PathFileType	4	(X/Y/Z)	..\data\SUBJ01\dynamic\walk.trc
DataRate	CameraRate	NumFrames	NumMarkers	Units	OrigDataRate	OrigDataStartFrame	OrigNumFrames
100.000000	100.000000	8	21	mm	100.000000	92	337
Frame#	Time	C7			T10			CLAV			STRN			LSHO			RSHO			LASI			RASI			SACR			LTHI			LKNE			LTIB			LANK			LHEE			LTOE			RTHI			RKNE			RTIB			RANK			RHEE			RTOE			
		X1	Y1	Z1	X2	Y2	Z2	X3	Y3	Z3	X4	Y4	Z4	X5	Y5	Z5	X6	Y6	Z6	X7	Y7	Z7	X8	Y8	Z8	X9	Y9	Z9	X10	Y10	Z10	X11	Y11	Z11	X12	Y12	Z12	X13	Y13	Z13	X14	Y14	Z14	X15	Y15	Z15	X16	Y16	Z16	X17	Y17	Z17	X18	Y18	Z18	X19	Y19	Z19	X20	Y20	Z20	X21	Y21	Z21	

93	1.87	872.682556152344	1357.451416015625	22.04595035062721	812.021423339844	1134.372802734375	22.04595035062721	1021.694091796875	1262.321411132813	21.95847742216747	1084.218627929688	1107.161499023438	22.04595035062721	914.286315917969	1321.323486328125	-152.0801736032232	958.2183227539065	1295.986938476563	192.0803046712631	1017.458312988281	864.8906860351565	-120.859251464656	999.9317016601565	873.3154296875002	160.859251464656	831.275817871094	876.647399902344	20	1045.505615234375	609.7329711914064	-196.594804781495	1114.898315429688	453.1155700683595	-109.6938565403288	1093.748046875	221.4557800292969	-159.4973066312762	1100.959106445313	89.5790481567383	-111.7562165806763	1038.545043945313	76.82384490966798	-65.58032746445977	1203.915283203125	71.37356567382814	-74.43897087404167	933.494323730469	582.4625854492189	213.5914694104505	914.8931274414065	406.9115600585939	149.1302321308147	864.1407470703127	174.6594390869141	196.2680469139518	823.1860961914065	63.18371963500978	152.8880051473318	767.8673706054689	60.14505004882814	105.7255595369172	932.1262207031252	40.92645645141602	114.6938823150058	
94	1.88	883.529724121094	1356.04541015625	22.04595035062721	822.8698730468752	1132.99951171875	22.04595035062721	1032.5546875	1260.916015625	21.95847742216747	1095.050537109375	1105.770629882813	22.04595035062721	924.967224121094	1319.898315429688	-152.0801736032232	968.922058105469	1294.88720703125	192.0803046712631	1028.451782226563	863.3021240234377	-120.859251464656	1010.266723632813	871.738708496094	160.859251464656	842.0681762695315	875.400085449219	20	1053.551513671875	607.2767333984376	-196.594804781495	1123.239379882813	450.3850708007814	-109.6938565403288	1116.758422851563	216.5885772705079	-159.4973066312762	1134.482666015625	85.4463348388672	-111.7562165806763	1073.152587890625	68.40347290039064	-65.58032746445977	1238.897583007813	74.20406341552736	-74.43897087404167	940.5037841796877	581.4440917968751	213.5914694104505	919.4058837890627	406.0689086914064	149.1302321308147	865.7498168945315	174.3182067871094	196.2680469139518	823.5712890625002	63.49396896362306	152.8880051473318	768.2487792968752	60.74791717529298	105.7255595369172	932.244079589844	40.85847091674805	114.6938823150058	
95	1.89	894.4464111328127	1354.4970703125	22.04595035062721	833.7849121093752	1131.488159179688	22.04595035062721	1043.492431640625	1259.36181640625	21.95847742216747	1105.951904296875	1104.231811523438	22.04595035062721	935.734069824219	1318.3095703125	-152.0801736032232	979.7122802734377	1293.647338867188	192.0803046712631	1039.473022460938	861.5781250000002	-120.859251464656	1020.700561523438	870.022399902344	160.859251464656	852.9155883789065	874.0086669921877	20	1060.56689453125	604.2366943359376	-196.594804781495	1131.232055664063	447.4128417968751	-109.6938565403288	1138.748168945313	212.3464050292969	-159.4973066312762	1166.63134765625	82.48380279541017	-111.7562165806763	1106.624389648438	61.42002105712892	-65.58032746445977	1272.1787109375	77.83941650390626	-74.43897087404167	947.7857055664065	580.2753295898439	213.5914694104505	924.2918090820315	405.1346435546876	149.1302321308147	867.5118408203127	173.9523162841797	196.2680469139518	823.948425292969	63.81088638305665	152.8880051473318	768.6702270507815	61.44956970214845	105.7255595369172	932.3919067382815	40.83317184448243	114.6938823150058	
96	1.9	905.4346313476565	1352.82275390625	22.04595035062721	844.7727050781252	1129.85595703125	22.04595035062721	1054.50927734375	1257.678466796875	21.95847742216747	1116.92724609375	1102.5625	22.04595035062721	946.5765380859377	1316.567260742188	-152.0801736032232	990.6009521484377	1292.28076171875	192.0803046712631	1050.5302734375	859.7386474609377	-120.859251464656	1031.23486328125	868.1829833984377	160.859251464656	863.8187255859377	872.494079589844	20	1066.63623046875	600.6633300781251	-196.594804781495	1139.114135742188	444.3258361816407	-109.6938565403288	1159.553466796875	208.7242126464844	-159.4973066312762	1196.96728515625	80.56552124023439	-111.7562165806763	1138.450317382813	55.83964920043947	-65.58032746445977	1303.37353515625	82.01219940185548	-74.43897087404167	955.3608398437502	578.9602050781251	213.5914694104505	929.5775146484377	404.1048889160157	149.1302321308147	869.437194824219	173.5733184814453	196.2680469139518	824.3190917968752	64.15473937988283	152.8880051473318	769.1299438476565	62.28124618530275	105.7255595369172	932.569274902344	40.84497070312501	114.6938823150058	
97	1.91	916.496276855469	1351.042236328125	22.04595035062721	855.8389892578127	1128.12353515625	22.04595035062721	1065.6064453125	1255.888061523438	21.95847742216747	1127.980590820313	1100.78271484375	22.04595035062721	957.4868164062502	1314.686157226563	-152.0801736032232	1001.597351074219	1290.801635742188	192.0803046712631	1061.629516601563	857.804870605469	-120.859251464656	1041.873901367188	866.2383422851565	160.859251464656	874.7805786132815	870.8800048828127	20	1071.932250976563	596.6466674804689	-196.594804781495	1147.1220703125	441.2484130859376	-109.6938565403288	1179.035034179688	205.6731262207032	-159.4973066312762	1225.084838867188	79.48998260498048	-111.7562165806763	1168.14013671875	51.54813766479494	-65.58032746445977	1332.1298828125	86.38498687744142	-74.43897087404167	963.2427368164065	577.5084838867189	213.5914694104505	935.2875976562502	402.9795532226564	149.1302321308147	871.5362548828127	173.1979064941407	196.2680469139518	824.6914672851565	64.55640411376955	152.8880051473318	769.6254882812502	63.27928161621095	105.7255595369172	932.7755126953127	40.88754272460938	114.6938823150058	
98	1.92	927.6329345703127	1349.1787109375	22.04595035062721	866.9893188476565	1126.314697265625	22.04595035062721	1076.784545898438	1254.015991210938	21.95847742216747	1139.116577148438	1098.916015625	22.04595035062721	968.4605102539065	1312.6865234375	-152.0801736032232	1012.708435058594	1289.225708007813	192.0803046712631	1072.77734375	855.800231933594	-120.859251464656	1052.62451171875	864.2077636718752	160.859251464656	885.807800292969	869.1919555664065	20	1076.721557617188	592.3144531250001	-196.594804781495	1155.4677734375	438.2907104492189	-109.6938565403288	1197.08740234375	203.1078491210938	-159.4973066312762	1250.64208984375	79.0006561279297	-111.7562165806763	1195.260009765625	48.3648147583008	-65.58032746445977	1358.156616210938	90.57833099365236	-74.43897087404167	971.4393310546877	575.9353637695314	213.5914694104505	941.4434204101565	401.7627258300782	149.1302321308147	873.819519042969	172.8484191894532	196.2680469139518	825.0788574218752	65.05549621582033	152.8880051473318	770.155456542969	64.48537445068361	105.7255595369172	933.0108032226565	40.95458984375001	114.6938823150058	
99	1.93	938.8457641601565	1347.258911132813	22.04595035062721	878.2290649414065	1124.455322265625	22.04595035062721	1088.044677734375	1252.090454101563	21.95847742216747	1150.340087890625	1096.989624023438	22.04595035062721	979.496520996094	1310.59375	-152.0801736032232	1023.938659667969	1287.571411132813	192.0803046712631	1083.982299804688	853.7519531250002	-120.859251464656	1063.497192382813	862.1126098632815	160.859251464656	896.9113769531252	867.4566650390627	20	1081.35791015625	587.8244628906251	-196.594804781495	1164.31591796875	435.5384521484376	-109.6938565403288	1213.646728515625	200.9193420410157	-159.4973066312762	1273.389282226563	78.8150100708008	-111.7562165806763	1219.467163085938	46.06563949584962	-65.58032746445977	1381.24853515625	94.20703887939455	-74.43897087404167	979.9562988281252	574.2609863281251	213.5914694104505	948.0631103515627	400.4625549316407	149.1302321308147	876.298767089844	172.5531768798828	196.2680469139518	825.4985351562502	65.69773864746095	152.8880051473318	770.7224121093752	65.94711303710939	105.7255595369172	933.2761230468752	41.03982543945313	114.6938823150058	
100	1.94	950.1351318359377	1345.312255859375	22.04595035062721	889.5635375976565	1122.572387695313	22.04595035062721	1099.38818359375	1250.142822265625	21.95847742216747	1161.656982421875	1095.034912109375	22.04595035062721	990.5967407226565	1308.438232421875	-152.0801736032232	1035.289916992188	1285.860961914063	192.0803046712631	1095.257202148438	851.692321777344	-120.859251464656	1074.505615234375	859.9763793945315	160.859251464656	908.1065673828127	865.7011718750002	20	1086.258056640625	583.3521118164064	-196.594804781495	1173.767944335938	433.0466918945314	-109.6938565403288	1228.694946289063	198.9907684326172	-159.4973066312762	1293.18994140625	78.65776824951173	-111.7562165806763	1240.53857421875	44.41240692138673	-65.58032746445977	1401.304931640625	96.91985321044925	-74.43897087404167	988.800964355469	572.5089721679689	213.5914694104505	955.1624755859377	399.0904541015626	149.1302321308147	878.9893798828127	172.3467407226563	196.2680469139518	825.9713134765627	66.53256225585939	152.8880051473318	771.3367309570315	67.71878051757814	105.7255595369172	933.5734863281252	41.13649368286134	114.6938823150058	
